<?xml version="1.0" standalone="no"?>
<!DOCTYPE svg PUBLIC "-//W3C//DTD SVG 20010904//EN"
 "http://www.w3.org/TR/2001/REC-SVG-20010904/DTD/svg10.dtd">
<svg version="1.0" xmlns="http://www.w3.org/2000/svg"
 width="3292.000000pt" height="1528.000000pt" viewBox="0 0 3292.000000 1528.000000"
 preserveAspectRatio="xMidYMid meet">

<g transform="translate(0.000000,1528.000000) scale(0.100000,-0.100000)"
fill="#000000" stroke="none">
<path d="M19185 15273 c-476 -17 -929 -104 -1377 -264 -79 -28 -345 -132 -591
-230 -511 -204 -758 -291 -990 -349 -298 -74 -486 -96 -742 -87 -307 11 -489
48 -1120 232 -280 81 -507 137 -680 167 -114 20 -163 23 -405 23 -241 -1 -291
-4 -409 -24 -300 -51 -629 -152 -1086 -331 -660 -259 -901 -344 -1161 -409
-282 -70 -465 -94 -724 -93 -387 1 -689 55 -1444 262 -801 218 -1221 294
-1851 331 -250 15 -846 6 -1075 -15 -472 -45 -753 -95 -1475 -265 -795 -187
-1085 -228 -1539 -218 -380 8 -550 38 -1356 241 -589 148 -758 180 -1093 210
l-67 7 0 -7226 0 -7225 16460 0 16460 0 0 7379 0 7379 -67 62 c-126 115 -294
175 -523 187 -236 11 -475 -27 -895 -142 -623 -172 -728 -189 -1130 -189 -428
0 -654 31 -1440 198 -843 181 -1051 212 -1451 223 -423 11 -743 -37 -1354
-202 -636 -172 -891 -230 -1160 -264 -268 -34 -474 -44 -780 -38 -617 14
-1080 80 -2290 330 -1184 245 -1600 309 -2190 337 -204 9 -267 10 -455 3z"/>
</g>
</svg>
