<?xml version="1.0" encoding="UTF-8"?>
<svg width="1200pt" height="1200pt" version="1.1" viewBox="0 0 1200 1200" xmlns="http://www.w3.org/2000/svg">
 <g fill="#fbf3ec">
  <path d="m597.31 962c-198.5 0-360-161.5-360-360s161.5-360 360-360 360 161.5 360 360-161.5 360-360 360zm0-684c-178.66 0-324 145.34-324 324s145.34 324 324 324 324-145.34 324-324-145.34-324-324-324z"/>
  <path d="m649.54 724.01c-4.5977 0-9.1914-1.7539-12.707-5.2422l-117-116.52 116.77-120.76c6.9102-7.1523 18.301-7.332 25.453-0.43359 7.1406 6.9102 7.332 18.301 0.42187 25.453l-92.102 95.242 91.871 91.488c7.043 7.0078 7.0664 18.422 0.046875 25.465-3.5156 3.5391-8.1367 5.3047-12.758 5.3047z"/>
 </g>
</svg>
